<?xml version="1.0" encoding="UTF-8"?>
<svg id="OBJECTS" xmlns="http://www.w3.org/2000/svg" viewBox="0 0 204.91 152.24">
  <defs>
    <style>
      .cls-1 {
        fill: #012970;
        opacity: .6;
      }

      .cls-2 {
        fill: #dbeafe;
      }
    </style>
  </defs>
  <g>
    <path class="cls-2" d="M202.27,66.93c1.4-3.54-.58-6.44-4.38-6.44H57.59c-3.81,0-8.06,2.9-9.46,6.44l-31.1,78.87c-1.4,3.54.58,6.44,4.38,6.44h140.3c3.81,0,8.06-2.9,9.46-6.44l31.1-78.87Z"/>
    <path class="cls-2" d="M10.31,139.07l31.1-78.87c1.4-3.54,5.65-6.44,9.46-6.44h110.14v-6.99c0-3.81-3.11-6.92-6.92-6.92h-49.13c-3.81,0-8.41-2.74-10.22-6.08l-6.69-12.32c-1.82-3.35-6.42-6.08-10.22-6.08H14.69c-3.81,0-6.92,3.11-6.92,6.92v116.3c0,3.34,2.4,6.15,5.57,6.79-2.9-.61-4.25-3.21-3.03-6.3Z"/>
  </g>
  <path class="cls-1" d="M112.24,82.32c-14.45,0-26.16,11.71-26.16,26.16s11.71,26.16,26.16,26.16,26.16-11.71,26.16-26.16-11.71-26.16-26.16-26.16ZM125.04,117.51l-3.77,3.77-9.03-9.03-9.03,9.03-3.77-3.77,9.03-9.03-9.03-9.03,3.77-3.77,9.03,9.03,9.03-9.03,3.77,3.77-9.03,9.03,9.03,9.03Z"/>
</svg>